# xmcd CD database file
#
# Track frame offsets:
#	150
#	19247
#	38057
#	56055
#
# Disc length: 998 seconds
#
# Revision: 3
# Processed by: cddbd v1.5.1PL0 Copyright (c) Steve Scherf et al.
# Submitted via: CDex 1.51
#
DISCID=2d03e404
DTITLE=GARNET CROW - 君の思い描いた夢 集メル HEAVEN
DYEAR=2005
DGENRE=JPop
TTITLE0=君の思い描いた夢 集メル HEAVEN
TTITLE1=Circle Days
TTITLE2=いつかまた会いましょう
TTITLE3=君の思い描いた夢 集メル HEAVEN (Instrumental)
EXTD=YEAR: 2005
EXTT0=
EXTT1=
EXTT2=
EXTT3=
PLAYORDER=
